<mxfile host="app.diagrams.net" modified="2023-12-18T16:21:35.369Z" agent="Mozilla/5.0 (Macintosh; Intel Mac OS X 10_15_7) AppleWebKit/537.36 (KHTML, like Gecko) Chrome/120.0.0.0 Safari/537.36" version="22.1.11" etag="JA7U1jA4QyX1r-hqFF_-" type="device">
  <diagram id="2oEOSKxDWmENRkWDVx01" name="Page-1">
    <mxGraphModel dx="2691" dy="1057" grid="1" gridSize="10" guides="1" tooltips="1" connect="1" arrows="1" fold="1" page="1" pageScale="1" pageWidth="850" pageHeight="1100" math="0" shadow="0">
      <root>
        <mxCell id="0" />
        <mxCell id="1" parent="0" />
        <UserObject label="" id="pRt-Qm-0NY0pMyyagH1G-24">
          <mxCell style="rounded=0;whiteSpace=wrap;html=1;movable=1;resizable=1;rotatable=1;deletable=1;editable=1;locked=0;connectable=1;fillColor=#f5f5f5;strokeColor=#666666;fontColor=#333333;" vertex="1" parent="1">
            <mxGeometry x="-610" y="121" width="1170" height="640" as="geometry" />
          </mxCell>
        </UserObject>
        <mxCell id="4" style="edgeStyle=none;html=1;entryX=0.5;entryY=0;entryDx=0;entryDy=0;fontColor=#000000;startArrow=classic;startFill=1;exitX=0.5;exitY=1;exitDx=0;exitDy=0;strokeColor=#000000;" parent="1" source="pRt-Qm-0NY0pMyyagH1G-41" target="pRt-Qm-0NY0pMyyagH1G-35" edge="1">
          <mxGeometry relative="1" as="geometry">
            <mxPoint x="-60" y="500" as="sourcePoint" />
            <mxPoint x="-60" y="600" as="targetPoint" />
          </mxGeometry>
        </mxCell>
        <mxCell id="14" style="edgeStyle=none;html=1;entryX=1;entryY=0.5;entryDx=0;entryDy=0;entryPerimeter=0;fontColor=#000000;startArrow=classic;startFill=1;exitX=0.5;exitY=0;exitDx=0;exitDy=0;strokeColor=#000000;" parent="1" source="pRt-Qm-0NY0pMyyagH1G-41" edge="1">
          <mxGeometry relative="1" as="geometry">
            <mxPoint x="-60" y="420" as="sourcePoint" />
            <mxPoint x="-60" y="310" as="targetPoint" />
          </mxGeometry>
        </mxCell>
        <mxCell id="23" style="edgeStyle=none;html=1;entryX=1;entryY=0.5;entryDx=0;entryDy=0;fontColor=#000000;startArrow=classic;startFill=1;exitX=0;exitY=0.75;exitDx=0;exitDy=0;strokeColor=#000000;" parent="1" source="pRt-Qm-0NY0pMyyagH1G-41" target="pRt-Qm-0NY0pMyyagH1G-43" edge="1">
          <mxGeometry relative="1" as="geometry">
            <mxPoint x="-110" y="480" as="sourcePoint" />
            <mxPoint x="-230" y="580" as="targetPoint" />
            <Array as="points">
              <mxPoint x="-91" y="560" />
            </Array>
          </mxGeometry>
        </mxCell>
        <mxCell id="7" style="edgeStyle=none;html=1;entryX=0;entryY=0.5;entryDx=0;entryDy=0;fontColor=#000000;startArrow=classic;startFill=1;exitX=1;exitY=0.5;exitDx=0;exitDy=0;strokeColor=#000000;" parent="1" source="pRt-Qm-0NY0pMyyagH1G-35" target="pRt-Qm-0NY0pMyyagH1G-37" edge="1">
          <mxGeometry relative="1" as="geometry">
            <mxPoint x="-30" y="640" as="sourcePoint" />
            <mxPoint x="90" y="640" as="targetPoint" />
          </mxGeometry>
        </mxCell>
        <mxCell id="15" style="edgeStyle=none;html=1;entryX=0;entryY=0.5;entryDx=0;entryDy=0;fontColor=#000000;startArrow=classic;startFill=1;strokeColor=#000000;" parent="1" target="pRt-Qm-0NY0pMyyagH1G-42" edge="1">
          <mxGeometry relative="1" as="geometry">
            <mxPoint x="40" y="295" as="sourcePoint" />
            <mxPoint x="150" y="295" as="targetPoint" />
          </mxGeometry>
        </mxCell>
        <mxCell id="16" style="edgeStyle=none;html=1;entryX=0;entryY=0.5;entryDx=0;entryDy=0;fontColor=#000000;startArrow=classic;startFill=1;strokeColor=#000000;" parent="1" source="pRt-Qm-0NY0pMyyagH1G-42" target="pRt-Qm-0NY0pMyyagH1G-34" edge="1">
          <mxGeometry relative="1" as="geometry">
            <mxPoint x="270" y="295" as="sourcePoint" />
            <mxPoint x="340" y="295" as="targetPoint" />
          </mxGeometry>
        </mxCell>
        <mxCell id="19" value="" style="edgeStyle=none;html=1;fontColor=#000000;startArrow=classic;startFill=1;strokeColor=#000000;" parent="1" source="pRt-Qm-0NY0pMyyagH1G-52" edge="1">
          <mxGeometry x="0.1636" relative="1" as="geometry">
            <Array as="points">
              <mxPoint x="210" y="190" />
            </Array>
            <mxPoint as="offset" />
            <mxPoint x="210" y="260" as="targetPoint" />
          </mxGeometry>
        </mxCell>
        <mxCell id="pRt-Qm-0NY0pMyyagH1G-44" value="" style="edgeStyle=orthogonalEdgeStyle;rounded=1;orthogonalLoop=1;jettySize=auto;html=1;entryX=0;entryY=0.25;entryDx=0;entryDy=0;startArrow=classic;startFill=1;fontSize=11;strokeColor=#000000;fontColor=#000000;" edge="1" parent="1" source="pRt-Qm-0NY0pMyyagH1G-48" target="pRt-Qm-0NY0pMyyagH1G-41">
          <mxGeometry relative="1" as="geometry" />
        </mxCell>
        <mxCell id="24" style="edgeStyle=none;html=1;entryX=0.5;entryY=1;entryDx=0;entryDy=0;fontColor=#000000;startArrow=classic;startFill=1;exitX=0;exitY=0.5;exitDx=0;exitDy=0;strokeColor=#000000;" parent="1" source="pRt-Qm-0NY0pMyyagH1G-43" target="pRt-Qm-0NY0pMyyagH1G-55" edge="1">
          <mxGeometry relative="1" as="geometry">
            <mxPoint x="-290" y="556.8571428571429" as="sourcePoint" />
            <mxPoint x="-430" y="471" as="targetPoint" />
            <Array as="points">
              <mxPoint x="-480" y="564" />
            </Array>
          </mxGeometry>
        </mxCell>
        <mxCell id="pRt-Qm-0NY0pMyyagH1G-34" value="" style="shape=image;verticalLabelPosition=bottom;labelBackgroundColor=default;verticalAlign=top;aspect=fixed;imageAspect=0;image=https://www.opc-router.de/wp-content/uploads/2021/03/mongodb_thumbnail.png;" vertex="1" parent="1">
          <mxGeometry x="380" y="249.99999999999997" width="65.5" height="88.1" as="geometry" />
        </mxCell>
        <mxCell id="pRt-Qm-0NY0pMyyagH1G-35" value="" style="shape=image;verticalLabelPosition=bottom;labelBackgroundColor=default;verticalAlign=top;aspect=fixed;imageAspect=0;image=https://cdn.iconscout.com/icon/premium/png-256-thumb/mysql-1618950-1378113.png;" vertex="1" parent="1">
          <mxGeometry x="-100" y="600" width="80" height="80" as="geometry" />
        </mxCell>
        <mxCell id="pRt-Qm-0NY0pMyyagH1G-37" value="" style="shape=image;verticalLabelPosition=bottom;labelBackgroundColor=default;verticalAlign=top;aspect=fixed;imageAspect=0;image=https://upload.wikimedia.org/wikipedia/commons/thumb/4/4f/PhpMyAdmin_logo.svg/2560px-PhpMyAdmin_logo.svg.png;" vertex="1" parent="1">
          <mxGeometry x="110" y="600.07" width="143.36" height="79.93" as="geometry" />
        </mxCell>
        <mxCell id="pRt-Qm-0NY0pMyyagH1G-40" value="" style="shape=image;verticalLabelPosition=bottom;labelBackgroundColor=default;verticalAlign=top;aspect=fixed;imageAspect=0;image=https://upload.wikimedia.org/wikipedia/commons/thumb/7/71/RabbitMQ_logo.svg/2560px-RabbitMQ_logo.svg.png;" vertex="1" parent="1">
          <mxGeometry x="-155" y="280.11" width="190" height="29.77" as="geometry" />
        </mxCell>
        <mxCell id="pRt-Qm-0NY0pMyyagH1G-41" value="" style="shape=image;verticalLabelPosition=bottom;labelBackgroundColor=default;verticalAlign=top;aspect=fixed;imageAspect=0;image=https://static-00.iconduck.com/assets.00/node-js-icon-1901x2048-mk1e13df.png;" vertex="1" parent="1">
          <mxGeometry x="-90.64" y="425" width="61.29" height="66.02" as="geometry" />
        </mxCell>
        <mxCell id="pRt-Qm-0NY0pMyyagH1G-42" value="" style="shape=image;verticalLabelPosition=bottom;labelBackgroundColor=default;verticalAlign=top;aspect=fixed;imageAspect=0;image=https://static-00.iconduck.com/assets.00/node-js-icon-1901x2048-mk1e13df.png;" vertex="1" parent="1">
          <mxGeometry x="179.35000000000002" y="261.99" width="61.29" height="66.02" as="geometry" />
        </mxCell>
        <mxCell id="pRt-Qm-0NY0pMyyagH1G-43" value="Redis" style="shape=image;verticalLabelPosition=bottom;labelBackgroundColor=default;verticalAlign=top;aspect=fixed;imageAspect=0;image=https://cdn4.iconfinder.com/data/icons/redis-2/1451/Untitled-2-512.png;" vertex="1" parent="1">
          <mxGeometry x="-390" y="528.07" width="72" height="72" as="geometry" />
        </mxCell>
        <mxCell id="pRt-Qm-0NY0pMyyagH1G-47" value="" style="edgeStyle=orthogonalEdgeStyle;rounded=1;orthogonalLoop=1;jettySize=auto;html=1;startArrow=classic;startFill=1;fontSize=11;entryX=0.5;entryY=1;entryDx=0;entryDy=0;strokeColor=#000000;fontColor=#000000;" edge="1" parent="1" source="pRt-Qm-0NY0pMyyagH1G-50" target="pRt-Qm-0NY0pMyyagH1G-42">
          <mxGeometry x="-0.2454" y="-2" relative="1" as="geometry">
            <mxPoint x="-29" y="458" as="sourcePoint" />
            <mxPoint x="210" y="430" as="targetPoint" />
            <mxPoint as="offset" />
          </mxGeometry>
        </mxCell>
        <mxCell id="pRt-Qm-0NY0pMyyagH1G-49" value="" style="edgeStyle=orthogonalEdgeStyle;rounded=1;orthogonalLoop=1;jettySize=auto;html=1;entryX=0;entryY=0.5;entryDx=0;entryDy=0;startArrow=classic;startFill=1;fontSize=11;exitX=1;exitY=0.5;exitDx=0;exitDy=0;strokeColor=#000000;fontColor=#000000;" edge="1" parent="1" source="pRt-Qm-0NY0pMyyagH1G-55" target="pRt-Qm-0NY0pMyyagH1G-48">
          <mxGeometry relative="1" as="geometry">
            <mxPoint x="-370" y="440.9999999999998" as="sourcePoint" />
            <mxPoint x="-91" y="442" as="targetPoint" />
          </mxGeometry>
        </mxCell>
        <mxCell id="pRt-Qm-0NY0pMyyagH1G-48" value="" style="shape=image;verticalLabelPosition=bottom;labelBackgroundColor=default;verticalAlign=top;aspect=fixed;imageAspect=0;image=https://keenethics.com/wp-content/uploads/2022/01/rest-api-1.svg;clipPath=inset(3.21% 29.33% 0.92% 30% round 5%);" vertex="1" parent="1">
          <mxGeometry x="-218.84" y="417" width="56.44" height="48.34" as="geometry" />
        </mxCell>
        <mxCell id="pRt-Qm-0NY0pMyyagH1G-51" value="" style="edgeStyle=orthogonalEdgeStyle;rounded=1;orthogonalLoop=1;jettySize=auto;html=1;startArrow=classic;startFill=1;fontSize=11;entryX=0.5;entryY=1;entryDx=0;entryDy=0;strokeColor=#000000;fontColor=#000000;" edge="1" parent="1" source="pRt-Qm-0NY0pMyyagH1G-41" target="pRt-Qm-0NY0pMyyagH1G-50">
          <mxGeometry x="-0.2454" y="-2" relative="1" as="geometry">
            <mxPoint x="-29" y="458" as="sourcePoint" />
            <mxPoint x="210" y="328" as="targetPoint" />
            <mxPoint as="offset" />
          </mxGeometry>
        </mxCell>
        <mxCell id="pRt-Qm-0NY0pMyyagH1G-50" value="" style="shape=image;verticalLabelPosition=bottom;labelBackgroundColor=default;verticalAlign=top;aspect=fixed;imageAspect=0;image=https://keenethics.com/wp-content/uploads/2022/01/rest-api-1.svg;clipPath=inset(3.21% 29.33% 0.92% 30% round 5%);" vertex="1" parent="1">
          <mxGeometry x="180.8" y="380" width="58.38" height="50" as="geometry" />
        </mxCell>
        <mxCell id="pRt-Qm-0NY0pMyyagH1G-54" value="" style="edgeStyle=none;html=1;fontColor=#000000;startArrow=classic;startFill=1;exitX=0.5;exitY=0;exitDx=0;exitDy=0;strokeColor=#000000;" edge="1" parent="1" source="pRt-Qm-0NY0pMyyagH1G-55" target="pRt-Qm-0NY0pMyyagH1G-52">
          <mxGeometry x="0.1636" relative="1" as="geometry">
            <Array as="points">
              <mxPoint x="-480" y="190" />
              <mxPoint x="-310" y="190" />
            </Array>
            <mxPoint as="offset" />
            <mxPoint x="-426.41434262948223" y="411" as="sourcePoint" />
            <mxPoint x="210" y="260" as="targetPoint" />
          </mxGeometry>
        </mxCell>
        <mxCell id="pRt-Qm-0NY0pMyyagH1G-52" value="Socket.io" style="shape=image;verticalLabelPosition=bottom;labelBackgroundColor=default;verticalAlign=top;aspect=fixed;imageAspect=0;image=https://static-00.iconduck.com/assets.00/socket-io-icon-2048x2046-tx88w4en.png;" vertex="1" parent="1">
          <mxGeometry x="-155" y="172" width="35.5" height="35.47" as="geometry" />
        </mxCell>
        <mxCell id="pRt-Qm-0NY0pMyyagH1G-55" value="" style="shape=image;verticalLabelPosition=bottom;labelBackgroundColor=default;verticalAlign=top;aspect=fixed;imageAspect=0;image=https://static-00.iconduck.com/assets.00/react-javascript-js-framework-facebook-icon-512x455-jctj7y5w.png;" vertex="1" parent="1">
          <mxGeometry x="-520" y="404.55999999999995" width="82" height="72.87" as="geometry" />
        </mxCell>
      </root>
    </mxGraphModel>
  </diagram>
</mxfile>
